# xmcd
#
# Track frame offsets:
#	150
#	13148
#	25728
#	41806
#	62031
#	76744
#	90190
#	101738
#	118781
#	134378
#	148312
#	162260
#	180452
#	198445
#	213144
#	227384
#	242815
#	259951
#	277889
#	288527
#	308431
#
# Disc length: 4417 seconds
#
# Revision: 1
# Processed by: cddbd v1.5.1PL0 Copyright (c) Steve Scherf et al.
# Submitted via: audiograbber 1.82.02
#
DISCID=1f113f15
DTITLE=Zona B - Two In One
DYEAR=2000
DGENRE=Blues
TTITLE0=Oh Well
TTITLE1=Shame Shame Shame
TTITLE2=Spoonfull
TTITLE3=As Tears Go By
TTITLE4=Love Like Man
TTITLE5=Good Morning Little Girl
TTITLE6=Cocaine
TTITLE7=Tobacco Raod
TTITLE8=Get Readu
TTITLE9=World In The Jug
TTITLE10=Shake Your Moneymaker
TTITLE11=My Baby
TTITLE12=Sittin' On The Top Of The World
TTITLE13=Six Days On The Road
TTITLE14=I Thank You
TTITLE15=My Woman
TTITLE16=Born Under A Bad Sign
TTITLE17=Don't Put Me Down
TTITLE18=Tush
TTITLE19=Need Your Love So Bad
TTITLE20=When The Eagle Flies
EXTD=
EXTT0=
EXTT1=
EXTT2=
EXTT3=
EXTT4=
EXTT5=
EXTT6=
EXTT7=
EXTT8=
EXTT9=
EXTT10=
EXTT11=
EXTT12=
EXTT13=
EXTT14=
EXTT15=
EXTT16=
EXTT17=
EXTT18=
EXTT19=
EXTT20=
PLAYORDER=
